<?xml version="1.0" encoding="utf-8"?>
<!-- Generator: Adobe Illustrator 24.3.0, SVG Export Plug-In . SVG Version: 6.00 Build 0)  -->
<svg version="1.1"
	 id="Layer_1" xmlns:cc="http://creativecommons.org/ns#" xmlns:dc="http://purl.org/dc/elements/1.1/" xmlns:rdf="http://www.w3.org/1999/02/22-rdf-syntax-ns#"
	 xmlns="http://www.w3.org/2000/svg" xmlns:xlink="http://www.w3.org/1999/xlink" x="0px" y="0px" viewBox="0 0 70 70"
	 style="enable-background:new 0 0 70 70;" xml:space="preserve">
<style type="text/css">
	.st0{fill:#8E9396;}
	.st1{fill:#5E052C;}
	.st2{fill:#544D9D;}
	.st3{fill:#4E54A0;}
	.st4{fill:#442665;}
	.st5{fill:#B53863;}
</style>
<g>
	<g>
		<path class="st0" d="M23.6,10.9c0-4,3.2-7.2,7.2-7.2c3.7,0,6.7,2.8,7.1,6.3c1.1-0.4,2.3-0.6,3.4-0.8c-0.8-5.1-5.2-9.1-10.6-9.1
			c-5.9,0-10.7,4.8-10.7,10.7c0,4.4,2.6,8.1,6.4,9.8c0.5-1.1,1-2.1,1.7-3.1C25.5,16.5,23.6,13.9,23.6,10.9z"/>
		<path class="st0" d="M32.2,17.9c-0.9,1.1-1.7,2.3-2.3,3.6c0.3,0,0.6,0,0.9,0c5.2,0,9.6-3.8,10.5-8.7c-1.5,0.2-2.8,0.7-4.1,1.3
			C36.2,16.1,34.4,17.5,32.2,17.9z"/>
	</g>
	<g>
		<path class="st1" d="M41.3,9.3c-1.2,0.1-2.3,0.4-3.4,0.8c0,0.3,0.1,0.5,0.1,0.8c0,1.2-0.3,2.3-0.8,3.3c1.3-0.6,2.7-1.1,4.1-1.3
			c0.1-0.6,0.2-1.3,0.2-2C41.5,10.4,41.4,9.8,41.3,9.3z"/>
		<path class="st1" d="M28.1,17.6c-0.6,1-1.2,2-1.7,3.1c1.1,0.5,2.2,0.8,3.5,0.9c0.6-1.3,1.4-2.5,2.3-3.6c-0.5,0.1-1,0.2-1.5,0.2
			C29.8,18.1,28.9,17.9,28.1,17.6z"/>
	</g>
	<g>
		<path class="st2" d="M51.6,47.7c-0.5,0-0.9-0.1-1.3-0.2c-0.4,10.4-9,18.8-19.6,18.8c-10.8,0-19.6-8.8-19.6-19.6
			c0-8.8,5.8-16.3,13.9-18.7c0,0,0-0.1,0-0.1c0-1.2,0.1-2.4,0.4-3.6C15.2,26.6,7.7,35.8,7.7,46.7c0,12.7,10.4,23.1,23.1,23.1
			c12.6,0,22.9-10.1,23.1-22.7C53.2,47.4,52.4,47.7,51.6,47.7z"/>
		<path class="st3" d="M48.7,38.7c0.8-0.6,1.8-1,3-1c0.2,0,0.3,0,0.5,0c-3.5-8.3-11.7-14.2-21.3-14.2c-0.5,0-1.1,0-1.6,0.1
			c-0.3,1.1-0.5,2.3-0.6,3.6c0.7-0.1,1.4-0.1,2.2-0.1C38.8,27.1,45.6,31.9,48.7,38.7z"/>
	</g>
	<g>
		<path class="st4" d="M25,27.8c0,0,0,0.1,0,0.1c1.1-0.3,2.3-0.6,3.5-0.7c0-1.2,0.2-2.4,0.6-3.6c-1.3,0.1-2.5,0.3-3.8,0.6
			C25.2,25.4,25,26.6,25,27.8z"/>
		<path class="st4" d="M53.7,43.5c-0.2-1.3-0.4-2.5-0.8-3.7c-0.2-0.7-0.5-1.4-0.7-2c-0.2,0-0.3,0-0.5,0c-1.1,0-2.1,0.4-3,1
			c0.4,0.9,0.8,1.9,1,2.9c0.3,1.1,0.5,2.3,0.6,3.5c0,0.5,0.1,1,0.1,1.5c0,0.3,0,0.5,0,0.8c0.4,0.1,0.8,0.2,1.3,0.2
			c0.8,0,1.6-0.2,2.2-0.6c0-0.1,0-0.3,0-0.4C53.9,45.6,53.8,44.5,53.7,43.5z"/>
	</g>
	<g>
		<path class="st5" d="M29.9,21.6c-1.2-0.1-2.4-0.4-3.5-0.9c-0.5,1.1-0.8,2.3-1.1,3.5c1.2-0.3,2.5-0.5,3.8-0.6
			C29.4,22.9,29.6,22.2,29.9,21.6z"/>
		<path class="st5" d="M32.2,17.9c1.4-1.6,3-2.9,4.9-3.8c0.5-1,0.8-2.1,0.8-3.3c0-0.3,0-0.6-0.1-0.8c-4,1.3-7.5,4-9.8,7.5
			c0.8,0.3,1.7,0.5,2.7,0.5C31.3,18.1,31.8,18,32.2,17.9z"/>
		<path class="st5" d="M49.7,41.7c-0.3-1-0.6-2-1-2.9c-1.2,0.9-2,2.3-2,3.9c-1,0.2-2,0.3-3,0.3c-8.3,0-15.1-6.8-15.1-15.1
			c0-0.2,0-0.4,0-0.6c-1.2,0.1-2.4,0.4-3.5,0.7c0.1,10.2,8.4,18.5,18.6,18.5c1.5,0,2.9-0.2,4.2-0.5c0.6,0.7,1.5,1.3,2.4,1.5
			c0-0.3,0-0.5,0-0.8c0-0.5,0-1-0.1-1.5C50.2,44,50,42.8,49.7,41.7z"/>
		<path class="st5" d="M62.3,27.8c0-10.3-8.4-18.6-18.6-18.6c-0.8,0-1.6,0.1-2.3,0.2c0.1,0.5,0.1,1.1,0.1,1.6c0,0.7-0.1,1.3-0.2,2
			c0.8-0.1,1.6-0.2,2.4-0.2c8.3,0,15.1,6.8,15.1,15.1c0,4.2-1.7,8-4.5,10.7c-0.6-0.4-1.4-0.7-2.2-0.8c0.3,0.7,0.5,1.3,0.7,2
			c0.4,1.2,0.6,2.4,0.8,3.7c0.1,1,0.2,2.1,0.2,3.1c0,0.1,0,0.3,0,0.4c1.6-0.8,2.7-2.5,2.7-4.4c0-0.5-0.1-0.9-0.2-1.3
			C60,38,62.3,33.2,62.3,27.8z"/>
	</g>
</g>
</svg>
